<?xml version="1.0" standalone="no"?>
<!DOCTYPE svg PUBLIC "-//W3C//DTD SVG 20010904//EN"
 "http://www.w3.org/TR/2001/REC-SVG-20010904/DTD/svg10.dtd">
<svg version="1.0" xmlns="http://www.w3.org/2000/svg"
 width="626.000000pt" height="626.000000pt" viewBox="0 0 626.000000 626.000000"
 preserveAspectRatio="xMidYMid meet">

<g transform="translate(0.000000,626.000000) scale(0.100000,-0.100000)"
fill="#000000" stroke="none">
<path d="M3075 5455 c-335 -71 -733 -282 -960 -510 -122 -123 -163 -193 -172
-294 -11 -134 41 -351 126 -526 l39 -79 -28 -33 c-51 -58 -64 -161 -34 -276
47 -181 148 -274 292 -265 42 2 83 12 111 25 l44 22 50 -45 c28 -25 87 -72
131 -105 60 -45 86 -71 99 -101 9 -23 16 -42 15 -43 -2 -2 -32 -17 -68 -35
-36 -18 -77 -41 -92 -52 -15 -10 -62 -28 -105 -39 -128 -33 -238 -92 -314
-168 -71 -72 -119 -156 -119 -208 0 -41 22 -95 56 -140 23 -31 25 -39 19 -96
-4 -34 -1 -93 5 -132 21 -132 129 -415 204 -534 26 -40 28 -49 21 -105 -4 -42
-16 -75 -36 -107 -16 -25 -32 -61 -35 -80 -4 -19 -15 -47 -24 -64 -36 -61 -60
-163 -60 -259 -1 -50 -5 -125 -10 -166 -5 -41 -12 -103 -16 -137 l-7 -63 54
-24 c30 -13 56 -22 58 -20 7 7 -31 44 -46 44 -18 0 -17 15 3 34 32 33 67 7 88
-65 11 -36 19 -45 52 -56 25 -9 40 -10 42 -3 6 17 29 11 35 -10 5 -21 29 -29
24 -8 -1 6 7 14 18 16 31 6 54 32 65 71 16 60 68 139 101 157 26 13 36 13 60
3 39 -16 57 -52 69 -141 8 -57 16 -78 35 -96 19 -17 25 -33 25 -62 0 -36 3
-40 24 -40 23 0 24 2 15 32 -13 45 -11 58 6 58 10 0 15 -10 15 -34 0 -48 9
-66 32 -66 16 0 18 4 11 23 -4 12 -6 66 -5 120 5 196 -57 339 -170 398 -35 18
-36 20 -27 56 14 62 11 171 -7 208 -20 42 -64 63 -100 46 -14 -6 -48 -11 -77
-11 -47 0 -54 3 -69 30 -21 37 -60 53 -116 47 -35 -4 -42 -2 -38 10 3 8 6 23
6 34 0 10 14 31 30 46 17 14 30 32 30 40 0 24 14 13 67 -52 63 -75 122 -108
208 -113 57 -4 67 -1 208 67 81 39 151 71 156 71 11 0 21 -87 21 -183 0 -171
-31 -498 -66 -687 -8 -47 -18 -100 -21 -118 -5 -30 -4 -32 25 -32 20 0 32 6
36 18 6 19 36 189 36 203 0 5 4 9 9 9 10 0 4 -82 -14 -169 l-12 -64 140 6 c77
4 142 9 145 11 9 10 42 285 53 451 11 167 7 564 -7 614 -6 21 -4 23 12 18 10
-3 79 -26 152 -51 72 -25 162 -50 200 -56 37 -6 71 -15 75 -19 5 -5 11 -45 14
-90 5 -75 4 -81 -13 -81 -100 -1 -304 -45 -304 -66 0 -4 72 -5 160 -2 l160 5
0 -22 c0 -24 -29 -35 -94 -35 -24 0 -27 -3 -16 -10 8 -5 37 -10 64 -10 l49 0
-5 -260 c-5 -260 -5 -260 16 -254 12 3 26 12 32 20 15 19 27 547 16 698 -6 93
-5 109 8 113 83 26 145 75 182 146 25 47 28 134 8 221 -9 42 -8 51 6 67 10 11
18 27 19 37 1 9 13 41 28 70 15 30 27 62 27 72 0 25 -41 72 -82 94 l-33 18
-27 171 c-34 218 -52 274 -98 305 -29 19 -36 31 -42 70 -4 25 -12 56 -18 68
-23 42 -143 91 -304 122 l-89 18 69 44 c162 104 270 262 303 445 6 32 22 75
36 95 32 46 64 141 72 211 7 68 -15 123 -55 137 -24 8 -26 12 -23 57 3 45 8
55 72 123 85 91 134 171 155 252 20 77 13 129 -26 207 -17 32 -30 59 -30 60 0
2 16 -5 36 -14 50 -24 69 -10 67 50 -2 58 -52 156 -110 214 -64 65 -115 87
-199 88 l-71 0 8 30 c13 45 11 126 -6 181 -20 68 -83 149 -115 149 -23 0 -25
-4 -28 -55 -1 -30 -5 -66 -8 -78 -5 -23 -6 -22 -33 15 -122 167 -301 217 -576
158z m297 -46 c69 -15 157 -61 199 -106 39 -41 42 -41 -105 12 -119 43 -248
55 -391 36 -97 -13 -294 -75 -446 -141 -51 -22 -94 -38 -96 -36 -6 5 106 61
217 109 272 115 475 157 622 126z m396 -124 c18 -38 41 -142 42 -192 0 -31
-17 -9 -29 36 -7 27 -18 57 -25 67 -12 16 -14 14 -25 -19 -12 -36 -38 -54 -27
-19 13 44 26 110 26 140 0 44 12 40 38 -13z m-683 -17 c20 -9 25 -18 23 -37
-4 -34 -35 -38 -84 -12 -21 12 -45 21 -52 21 -22 0 -8 24 19 31 38 11 66 10
94 -3z m-171 -54 c19 -7 21 -40 4 -47 -14 -5 -68 23 -68 34 0 7 17 14 42 18 3
0 13 -2 22 -5z m1031 -198 c81 -34 160 -122 196 -216 33 -86 -17 -55 -84 53
-48 76 -66 88 -199 141 -21 8 -38 20 -38 25 0 16 85 13 125 -3z m-296 -134
c32 -48 44 -57 71 -59 18 -1 43 -12 56 -24 30 -28 70 -120 91 -210 22 -96 23
-418 1 -603 -14 -114 -19 -131 -39 -147 l-23 -17 25 -4 c23 -3 24 -6 27 -88 8
-229 -103 -435 -296 -550 -115 -68 -209 -85 -322 -59 -118 27 -326 148 -555
322 -91 69 -119 97 -160 159 -27 42 -53 77 -57 77 -5 1 -8 -21 -8 -47 0 -55
-13 -72 -69 -91 -139 -46 -256 54 -291 249 -16 88 -5 147 37 189 31 31 37 33
76 27 59 -10 118 -47 174 -111 26 -30 53 -55 60 -55 29 0 43 44 43 135 l0 91
36 18 c87 41 137 98 149 171 11 66 15 73 50 94 33 19 35 20 35 2 0 -26 20 -31
70 -20 120 27 303 169 360 279 24 46 21 3 -4 -74 -40 -118 -37 -123 49 -82
110 51 216 177 289 343 64 146 68 153 78 147 4 -3 25 -31 47 -62z m381 -154
c23 -29 52 -73 63 -98 27 -59 27 -149 0 -210 l-20 -45 -7 60 c-16 142 -25 175
-93 333 -12 29 17 8 57 -40z m-75 -768 c22 -43 18 -107 -10 -167 -13 -29 -27
-53 -31 -53 -4 0 -4 43 0 95 6 93 15 155 22 155 2 0 10 -13 19 -30z m-1012
-829 c63 -65 134 -107 205 -122 l53 -11 -24 -31 c-13 -18 -34 -33 -46 -35 -55
-8 -233 84 -250 130 -5 13 -11 55 -15 93 -6 65 -5 69 9 50 9 -11 39 -44 68
-74z m-127 -9 c1 -21 22 -90 48 -154 49 -124 91 -266 82 -275 -3 -3 -28 4 -55
16 -57 24 -79 27 -39 6 l27 -15 -29 -63 c-29 -63 -59 -192 -57 -236 1 -13 -3
-26 -8 -28 -6 -2 -27 48 -48 111 -79 242 -107 265 -62 49 33 -157 48 -201 74
-220 32 -22 48 -60 60 -143 6 -41 14 -83 17 -92 4 -14 0 -18 -17 -18 -49 0
-107 -40 -143 -98 -20 -30 -34 -58 -31 -60 2 -2 32 16 67 40 101 71 139 84
204 70 100 -21 270 -100 327 -152 l52 -48 -235 -116 c-130 -64 -252 -119 -273
-123 -20 -3 -64 0 -96 7 -58 12 -61 14 -126 98 -91 116 -128 174 -196 316 -63
131 -131 324 -150 430 -10 50 -10 74 -1 105 14 44 10 57 -30 120 -32 51 -35
79 -12 124 77 148 247 271 411 297 43 7 85 21 116 40 27 17 50 30 52 30 2 0
-3 -19 -10 -42 -15 -51 -29 -285 -19 -312 4 -10 27 -27 51 -37 58 -25 63 -24
22 4 l-34 23 1 95 c1 168 53 385 60 251z m677 -169 c43 -52 77 -102 77 -114 0
-13 -27 -49 -68 -91 l-67 -69 -38 133 c-20 73 -48 154 -60 180 l-23 47 35 4
c62 7 66 4 144 -90z m97 67 c126 -31 236 -69 263 -90 17 -14 27 -34 32 -67 9
-59 19 -73 56 -73 21 0 32 -7 39 -22 10 -23 71 -410 66 -416 -2 -1 -30 4 -62
11 -49 11 -68 12 -114 1 -30 -7 -56 -13 -57 -14 -2 0 -3 18 -3 39 0 21 -7 76
-16 122 -8 45 -14 105 -13 133 5 85 0 141 -11 130 -5 -5 -16 -37 -25 -72 -16
-61 -16 -63 6 -99 24 -39 30 -111 15 -204 -6 -38 -10 -46 -24 -42 -10 2 -47
-2 -82 -11 -36 -8 -67 -13 -69 -11 -2 2 6 17 18 33 38 54 63 125 65 184 1 69
-7 79 -109 134 l-70 38 63 -66 c57 -61 62 -70 62 -110 0 -23 -9 -62 -19 -84
-24 -54 -106 -166 -114 -157 -4 3 -7 31 -7 62 0 30 -10 108 -21 173 l-21 118
70 75 c83 86 106 126 97 163 -3 14 -36 55 -72 90 -36 35 -57 62 -47 59 11 -4
57 -15 104 -27z m-286 -92 c13 -46 29 -100 34 -121 l10 -37 -56 50 c-33 29
-69 52 -89 56 l-33 6 45 50 c25 28 45 56 45 64 0 8 4 14 9 14 6 0 21 -37 35
-82z m-245 -48 c38 -1 43 -16 17 -54 -13 -20 -32 -59 -41 -87 -10 -28 -19 -49
-20 -47 -5 5 -85 230 -85 238 0 4 25 -6 56 -22 31 -15 64 -28 73 -28z m218
-126 c3 -8 -2 -25 -11 -39 -13 -19 -25 -25 -54 -25 -20 0 -46 7 -56 15 -18 14
-18 15 -2 15 10 0 23 14 32 35 8 19 19 35 25 35 5 0 7 5 3 12 -4 7 7 1 25 -11
18 -13 35 -30 38 -37z m112 -175 c12 -56 19 -104 17 -106 -2 -3 -17 21 -32 52
-15 31 -42 73 -59 93 l-32 36 26 33 c25 33 26 33 42 14 9 -11 26 -65 38 -122z
m-284 16 c-12 -27 -26 -61 -32 -74 -9 -23 -11 -19 -25 38 -12 47 -14 71 -6 99
15 55 17 56 52 20 l33 -33 -22 -50z m-176 80 c29 -14 47 -62 80 -216 6 -26 15
-58 20 -72 13 -34 1 -40 -40 -23 -19 8 -55 17 -81 21 -29 4 -49 13 -53 23 -10
27 15 247 32 275 6 10 10 9 42 -8z m281 -35 c-23 -7 -23 -8 9 -9 26 -1 32 -4
27 -17 -3 -8 -2 -12 4 -9 14 8 58 -66 101 -170 36 -86 42 -120 14 -82 -7 10
-15 14 -16 9 -2 -5 -19 -7 -36 -5 -18 3 -31 8 -28 12 2 4 -9 5 -26 3 -25 -4
-29 -1 -29 18 0 13 -6 28 -14 34 -7 6 -16 26 -20 44 -5 27 -3 32 14 32 25 0
40 28 30 56 -5 12 -6 25 -2 30 4 4 2 4 -5 0 -7 -4 -9 -14 -6 -24 6 -15 5 -15
-11 -3 -9 8 -15 20 -12 27 3 7 -2 18 -10 24 -12 11 -14 6 -15 -31 0 -24 -3
-38 -6 -31 -2 6 -9 10 -14 6 -5 -3 -9 1 -9 10 0 8 4 16 9 18 6 2 12 17 15 33
2 17 5 31 5 33 1 1 13 2 29 1 l27 -1 -25 -8z m-66 -159 c-4 -23 -9 -40 -11
-37 -3 3 -2 23 2 46 4 23 9 39 11 37 3 -2 2 -23 -2 -46z m-164 -160 c0 -4 -12
-23 -26 -42 -14 -19 -39 -60 -54 -92 -16 -32 -31 -54 -34 -49 -5 9 -76 174
-76 178 0 2 8 5 18 7 26 8 172 5 172 -2z m362 -40 c149 -38 272 -82 380 -137
39 -20 59 -24 88 -19 34 6 41 3 69 -27 17 -18 46 -53 64 -77 40 -56 62 -70 79
-53 10 10 10 17 0 33 -17 27 -14 29 28 20 33 -6 35 -10 42 -56 11 -85 9 -155
-6 -184 -23 -43 -91 -99 -131 -107 -74 -13 -267 52 -505 171 -170 85 -324 152
-438 191 -59 20 -109 38 -110 39 -7 6 70 136 116 197 l46 61 60 -6 c34 -3 131
-24 218 -46z m701 19 c30 -11 72 -36 93 -55 l39 -35 -45 19 c-25 11 -63 22
-85 26 l-40 7 65 -43 c73 -49 96 -89 38 -65 -18 8 -49 17 -68 21 l-35 7 48
-31 c26 -17 47 -33 47 -35 0 -2 3 -12 7 -22 11 -28 -121 -14 -186 20 -28 14
-57 26 -66 26 -10 0 -15 10 -15 28 0 15 -9 47 -21 71 -31 70 -34 69 138 79 18
1 57 -7 86 -18z m-275 -17 c12 -22 23 -105 14 -101 -40 21 -165 78 -173 78 -5
0 -9 4 -9 9 0 8 86 27 137 30 12 0 26 -7 31 -16z m-415 -559 c-7 -3 -9 -12 -6
-20 3 -9 -2 -14 -16 -14 -12 0 -21 6 -21 13 0 19 10 27 34 26 12 0 16 -3 9 -5z
m37 -112 c0 -38 -2 -71 -5 -74 -3 -2 -18 -3 -34 0 -20 3 -28 8 -24 18 7 20
-30 18 -97 -5 -30 -10 -58 -16 -61 -12 -9 9 -20 113 -11 109 4 -2 28 -14 54
-27 40 -21 50 -23 76 -12 16 7 42 26 58 42 15 16 31 29 36 29 4 0 8 -31 8 -68z
m-68 -106 c18 -8 42 -17 53 -21 19 -6 18 -9 -13 -36 -34 -31 -50 -33 -139 -23
-49 6 -53 9 -53 34 0 23 6 29 48 42 63 20 66 20 104 4z m-893 -8 c11 -10 13
-10 7 0 -11 18 18 15 44 -6 l23 -18 -37 4 c-28 3 -44 -2 -71 -22 -67 -52 -97
-163 -99 -375 -1 -84 -4 -119 -8 -95 -10 54 -9 196 1 274 10 75 52 186 69 183
7 -2 9 4 5 13 -4 11 3 23 18 35 29 22 31 23 48 7z m91 -79 c19 -5 61 -9 92 -9
l57 0 7 -35 c3 -20 3 -69 -1 -110 -6 -73 -8 -75 -41 -91 -40 -19 -91 -74 -127
-135 -39 -67 -78 -196 -72 -238 6 -43 0 -32 -15 27 -6 24 -27 61 -47 83 l-35
39 11 140 c6 77 17 163 23 190 11 49 13 50 42 46 78 -12 210 -16 196 -6 -8 5
-28 10 -45 10 -16 1 -60 11 -97 23 l-68 22 21 33 c17 26 26 31 43 26 11 -4 37
-11 56 -15z m220 -29 c0 -26 -27 -33 -33 -8 -3 11 -3 26 0 34 7 19 33 -1 33
-26z m-1 -72 c0 -24 -4 -61 -8 -83 -7 -37 -8 -35 -13 35 -6 76 -4 90 13 90 5
0 9 -19 8 -42z m45 -198 c36 -13 98 -97 121 -163 17 -51 18 -59 5 -68 -12 -9
-12 -10 3 -5 15 5 17 -2 17 -44 0 -41 -3 -50 -18 -50 -14 0 -20 14 -28 69 -14
83 -47 152 -84 174 -15 10 -49 17 -74 17 -40 0 -51 -5 -90 -42 -34 -34 -49
-59 -67 -117 -25 -76 -41 -94 -64 -70 -12 12 -10 25 11 84 33 93 70 152 122
192 46 35 95 43 146 23z"/>
<path d="M3054 4361 c-11 -5 -33 -23 -47 -41 -28 -33 -36 -57 -14 -43 6 4 41
15 77 23 58 15 65 19 65 41 0 20 -5 24 -30 26 -16 1 -39 -2 -51 -6z"/>
<path d="M3656 4323 c-9 -22 10 -38 59 -50 22 -6 48 -14 58 -18 28 -12 20 14
-17 51 -38 38 -89 47 -100 17z"/>
<path d="M3002 4065 c-46 -58 -49 -179 -6 -226 73 -81 166 115 101 212 -30 44
-67 50 -95 14z m33 -45 c0 -16 -6 -26 -18 -28 -19 -4 -32 20 -23 44 9 25 41
13 41 -16z"/>
<path d="M3596 4059 c-31 -24 -35 -45 -6 -27 17 11 22 10 30 -2 5 -9 5 -19 -2
-27 -12 -15 -38 -17 -38 -3 0 6 -4 10 -9 10 -14 0 -21 -72 -11 -114 19 -86 84
-101 114 -26 29 74 13 175 -32 199 -16 8 -25 6 -46 -10z"/>
<path d="M2207 3881 c63 -46 74 -67 61 -119 -13 -53 3 -97 44 -118 35 -18 58
-12 58 15 0 14 -9 23 -27 27 -58 14 -68 45 -32 95 19 27 20 32 5 53 -14 23
-74 57 -126 71 -19 6 -15 0 17 -24z"/>
<path d="M2802 3874 c3 -15 86 -49 96 -40 1 2 -11 15 -28 30 -36 30 -73 35
-68 10z"/>
<path d="M2714 3869 c-10 -17 11 -30 57 -36 42 -5 43 -4 22 11 -33 25 -71 37
-79 25z"/>
<path d="M3735 3844 l-30 -25 40 6 c47 8 49 9 42 30 -9 21 -17 19 -52 -11z"/>
<path d="M3488 3764 c-40 -12 -48 -19 -48 -39 0 -21 5 -25 29 -25 32 0 91 43
91 66 0 17 -11 17 -72 -2z"/>
<path d="M2986 3578 c-18 -25 -21 -42 -7 -33 5 3 21 -6 34 -19 66 -65 209
-106 377 -106 101 0 121 3 168 25 30 14 52 31 52 40 0 20 -15 19 -80 -7 -84
-34 -229 -31 -330 7 -85 31 -160 79 -160 100 0 23 -37 18 -54 -7z"/>
<path d="M3282 3319 c-13 -5 -20 -13 -17 -19 9 -15 72 -12 78 4 10 27 -17 33
-61 15z"/>
<path d="M2450 2898 c0 -2 24 -21 53 -42 28 -21 68 -58 87 -82 19 -24 39 -44
43 -44 14 0 -51 77 -91 108 -44 34 -92 66 -92 60z"/>
<path d="M3201 2758 c0 -16 -5 -28 -11 -28 -5 0 -10 -7 -10 -15 0 -10 9 -14
29 -12 25 2 28 4 16 17 -7 8 -15 26 -18 40 -4 25 -4 24 -6 -2z"/>
<path d="M3266 2486 c3 -8 12 -17 20 -20 11 -4 12 -2 1 14 -14 23 -29 27 -21
6z"/>
<path d="M3305 2431 c5 -28 11 -36 19 -23 3 5 -1 18 -9 28 -14 18 -14 18 -10
-5z"/>
<path d="M3280 2404 c0 -8 5 -12 10 -9 6 3 10 10 10 16 0 5 -4 9 -10 9 -5 0
-10 -7 -10 -16z"/>
<path d="M3325 2389 c-4 -6 -3 -15 3 -21 6 -6 11 -4 15 6 7 18 -9 31 -18 15z"/>
</g>
</svg>
