<svg width="40" height="40" viewBox="0 0 40 40" fill="none" xmlns="http://www.w3.org/2000/svg">
<path d="M15.0013 17.9147C12.468 17.9147 10.418 15.8647 10.418 13.3314C10.418 10.798 12.468 8.74805 15.0013 8.74805C17.5346 8.74805 19.5846 10.798 19.5846 13.3314C19.5846 15.8647 17.5346 17.9147 15.0013 17.9147ZM15.0013 11.248C13.8513 11.248 12.918 12.1814 12.918 13.3314C12.918 14.4814 13.8513 15.4147 15.0013 15.4147C16.1513 15.4147 17.0846 14.4814 17.0846 13.3314C17.0846 12.1814 16.1513 11.248 15.0013 11.248Z" fill="#808080"/>
<path d="M25.0007 37.9154H15.0007C5.95065 37.9154 2.08398 34.0487 2.08398 24.9987V14.9987C2.08398 5.9487 5.95065 2.08203 15.0007 2.08203H21.6673C22.3507 2.08203 22.9173 2.6487 22.9173 3.33203C22.9173 4.01536 22.3507 4.58203 21.6673 4.58203H15.0007C7.31732 4.58203 4.58398 7.31536 4.58398 14.9987V24.9987C4.58398 32.682 7.31732 35.4154 15.0007 35.4154H25.0007C32.684 35.4154 35.4173 32.682 35.4173 24.9987V16.6654C35.4173 15.982 35.984 15.4154 36.6673 15.4154C37.3507 15.4154 37.9173 15.982 37.9173 16.6654V24.9987C37.9173 34.0487 34.0507 37.9154 25.0007 37.9154Z" fill="#808080"/>
<path d="M30 14.5819C29.3167 14.5819 28.75 14.0153 28.75 13.3319V3.33193C28.75 2.83193 29.05 2.36526 29.5167 2.18193C29.9833 1.9986 30.5167 2.0986 30.8833 2.4486L34.2167 5.78193C34.7 6.26526 34.7 7.06526 34.2167 7.5486C33.7333 8.03193 32.9333 8.03193 32.45 7.5486L31.25 6.3486V13.3319C31.25 14.0153 30.6833 14.5819 30 14.5819Z" fill="#808080"/>
<path d="M26.6677 7.9151C26.351 7.9151 26.0344 7.79844 25.7844 7.54844C25.301 7.0651 25.301 6.2651 25.7844 5.78177L29.1177 2.44844C29.601 1.9651 30.401 1.9651 30.8844 2.44844C31.3677 2.93177 31.3677 3.73177 30.8844 4.2151L27.551 7.54844C27.301 7.79844 26.9844 7.9151 26.6677 7.9151Z" fill="#808080"/>
<path d="M4.45081 32.8316C4.05081 32.8316 3.65081 32.6316 3.41748 32.2816C3.03415 31.715 3.18415 30.9316 3.75081 30.5483L11.9675 25.0316C13.7675 23.8316 16.2508 23.965 17.8841 25.3483L18.4341 25.8316C19.2675 26.5483 20.6841 26.5483 21.5008 25.8316L28.4341 19.8816C30.2008 18.365 32.9841 18.365 34.7675 19.8816L37.4841 22.215C38.0008 22.665 38.0675 23.4483 37.6175 23.9816C37.1675 24.4983 36.3675 24.565 35.8508 24.115L33.1341 21.7816C32.3008 21.065 30.9008 21.065 30.0675 21.7816L23.1341 27.7316C21.3675 29.2483 18.5841 29.2483 16.8008 27.7316L16.2508 27.2483C15.4841 26.5983 14.2175 26.5316 13.3675 27.115L5.16748 32.6316C4.93415 32.765 4.68415 32.8316 4.45081 32.8316Z" fill="#808080"/>
</svg>
